# xmcd
#
# Track frame offsets:
#	150
#	11611
#	28127
#	43881
#	58452
#	75282
#	87001
#	101083
#	115496
#	135645
#	150767
#	166680
#	184432
#	200293
#	215266
#
# Disc length: 3055 seconds
#
# Revision: 0
# Processed by: cddbd v1.5.2PL0 Copyright (c) Steve Scherf et al.
# Submitted via: EasyCDDAExtractor 15.3.0.1
#
DISCID=c10bed0f
DTITLE=Matti Korkiala - Onnen Kerj‰l‰inen 2016
DYEAR=2016
DGENRE=Suomi Iskelm‰
TTITLE0=Uusi Aamu Maailman
TTITLE1=Tuuli Kulkee Miss‰ Tahtoo
TTITLE2=Laulun Satumaa
TTITLE3=Seinill‰ On Korvat
TTITLE4=Vuoriston Kellot
TTITLE5=H‰n On Ollut Mulle Rakkain
TTITLE6=Kaipaus
TTITLE7=Hetki T‰‰
TTITLE8=Onnen Kerj‰l‰inen
TTITLE9=Piirr‰n Hiekkaan Syd‰men
TTITLE10=Kuutamourakka
TTITLE11=÷isin Vain Valvon
TTITLE12=Pullopostia
TTITLE13=Ehk‰
TTITLE14=El‰m‰ Jatkuu
EXTD=
EXTT0=
EXTT1=
EXTT2=
EXTT3=
EXTT4=
EXTT5=
EXTT6=
EXTT7=
EXTT8=
EXTT9=
EXTT10=
EXTT11=
EXTT12=
EXTT13=
EXTT14=
PLAYORDER=
